<svg xmlns="http://www.w3.org/2000/svg" viewBox="0 0 64 64" width="64" height="64"><g id="Layer_5" data-name="Layer 5"><path d="M60.67,44.84A4.46,4.46,0,0,0,55,42.33c-1.16-8.54-10.7-14.18-18.78-10.92V29.82A16.59,16.59,0,0,0,51.9,13.39a1,1,0,0,0-1-1,16.76,16.76,0,0,0-14.7,8.66V17.68a9,9,0,0,0-.39-14.47,1.07,1.07,0,0,0-1.23,0,9,9,0,0,0-.38,14.48v1.68a13.4,13.4,0,0,0-11.37-6.29,1,1,0,0,0-1,1A13.28,13.28,0,0,0,34.2,27.22V31.9c-7-6.44-19-3.45-22.25,5.51h-.14V33.86a1,1,0,0,0-1-1H4a1,1,0,0,0-1,1v24.5a1,1,0,0,0,1,1h6.81a1,1,0,0,0,1-1V56.07c2.78-.12,5.76.08,8.22,1.49L28.35,60a8.46,8.46,0,0,0,7.8,0l22.43-9.59A4.45,4.45,0,0,0,60.67,44.84ZM49.84,14.45A14.59,14.59,0,0,1,36.25,27.82,14.59,14.59,0,0,1,49.84,14.45ZM32.68,10.62a7.18,7.18,0,0,1,2.52-5.3,6.86,6.86,0,0,1,0,10.59A7.18,7.18,0,0,1,32.68,10.62Zm-8.79,4.52A11.28,11.28,0,0,1,34.14,25.22,11.29,11.29,0,0,1,23.89,15.14ZM25,30.43a12,12,0,0,1,11.27,7.89,1,1,0,0,0,1.28.6c1.82-.71-.95-4.24-1.62-5.21C43.05,30,52.24,35.07,53.05,43l-11,3.85a4.29,4.29,0,0,0-4.21-5h-7.2a2.24,2.24,0,0,1-1.07-.27l-6.9-3.65a4.32,4.32,0,0,0-2-.49H14.12A11.92,11.92,0,0,1,25,30.43ZM9.81,57.36H5V34.86H9.81Zm47.92-8.67L35.3,58.27A6.7,6.7,0,0,1,29,58.15L20.7,55.67c-2.67-1.5-5.89-1.71-8.89-1.6V39.41h8.9a2.35,2.35,0,0,1,1.07.26l6.9,3.65a4.21,4.21,0,0,0,2,.5h7.2a2.3,2.3,0,0,1,1.52,4l-1.69.59H26.78a1,1,0,0,0,0,2h11.1a4.21,4.21,0,0,0,2.49-.81l15.18-5.35A2.48,2.48,0,0,1,57.73,48.69Z" fill="#00d7e8"/></g></svg>